<?xml version="1.0" standalone="no"?><!DOCTYPE svg PUBLIC "-//W3C//DTD SVG 1.1//EN" "http://www.w3.org/Graphics/SVG/1.1/DTD/svg11.dtd"><svg t="1610633542800" class="icon" viewBox="0 0 1024 1024" version="1.1" xmlns="http://www.w3.org/2000/svg" p-id="2571" width="32" height="32" xmlns:xlink="http://www.w3.org/1999/xlink"><defs><style type="text/css"></style></defs><path d="M91.947643 260.164345c-15.413038 0-27.985378-12.543687-27.985378-27.980261 0-15.442714 12.57234-27.986401 27.985378-27.986401L931.447583 204.197682c15.46625 0 27.986401 12.543687 27.986401 27.986401 0 15.436574-12.514012 27.980261-27.986401 27.980261L91.947643 260.164345 91.947643 260.164345zM91.947643 260.164345M91.947643 539.999704c-15.413038 0-27.985378-12.567223-27.985378-27.981285 0-15.441691 12.57234-27.985378 27.985378-27.985378L931.447583 484.033042c15.46625 0 27.986401 12.543687 27.986401 27.985378 0 15.414061-12.514012 27.981285-27.986401 27.981285L91.947643 539.999704 91.947643 539.999704zM91.947643 539.999704M91.947643 819.836087c-15.413038 0-27.985378-12.567223-27.985378-27.980261 0-15.414061 12.57234-27.986401 27.985378-27.986401L931.447583 763.869425c15.46625 0 27.986401 12.571317 27.986401 27.986401 0 15.413038-12.514012 27.980261-27.986401 27.980261L91.947643 819.836087 91.947643 819.836087zM91.947643 819.836087" p-id="2572" fill="#999999"></path></svg>